HIERARCHY
ROOT Hips
{
    OFFSET 0.000000 0.000000 0.000000
    CHANNELS 6 Xposition Yposition Zposition Zrotation Xrotation Yrotation
    JOINT Spine
    {
        OFFSET -0.000000 7.979263 0.000000
        CHANNELS 3 Zrotation Xrotation Yrotation
        JOINT Spine1
        {
            OFFSET -0.000000 24.719021 0.000000
            CHANNELS 3 Zrotation Xrotation Yrotation
            JOINT Neck
            {
                OFFSET -0.000000 24.617504 2.237955
                CHANNELS 3 Zrotation Xrotation Yrotation
                JOINT Head
                {
                    OFFSET -0.000000 13.623132 -1.946162
                    CHANNELS 3 Zrotation Xrotation Yrotation
                    End Site
                    {
                        OFFSET -0.000000 24.327021 0.000000
                    }
                }
            }
            JOINT LeftShoulder
            {
                OFFSET 3.885773 23.018444 -0.302444
                CHANNELS 3 Zrotation Xrotation Yrotation
                JOINT LeftArm
                {
                    OFFSET 10.447750 0.000000 0.000000
                    CHANNELS 3 Zrotation Xrotation Yrotation
                    JOINT LeftForeArm
                    {
                        OFFSET 29.090096 0.000000 0.000000
                        CHANNELS 3 Zrotation Xrotation Yrotation
                        JOINT LeftHand
                        {
                            OFFSET 28.893339 0.000000 0.000000
                            CHANNELS 3 Zrotation Xrotation Yrotation
                            End Site
                            {
                                OFFSET 14.596213 0.000000 0.000000
                            }
                        }
                    }
                }
            }
            JOINT RightShoulder
            {
                OFFSET -3.864586 23.018444 -0.302444
                CHANNELS 3 Zrotation Xrotation Yrotation
                JOINT RightArm
                {
                    OFFSET -10.447750 0.000000 0.000000
                    CHANNELS 3 Zrotation Xrotation Yrotation
                    JOINT RightForeArm
                    {
                        OFFSET -29.090096 0.000000 0.000000
                        CHANNELS 3 Zrotation Xrotation Yrotation
                        JOINT RightHand
                        {
                            OFFSET -28.893339 0.000000 0.000000
                            CHANNELS 3 Zrotation Xrotation Yrotation
                            End Site
                            {
                                OFFSET -14.596213 0.000000 0.000000
                            }
                        }
                    }
                }
            }
        }
    }
    JOINT LeftUpLeg
    {
        OFFSET 9.730808 0.000000 0.000000
        CHANNELS 3 Zrotation Xrotation Yrotation
        JOINT LeftLeg
        {
            OFFSET -0.000000 -34.800129 0.000000
            CHANNELS 3 Zrotation Xrotation Yrotation
            JOINT LeftFoot
            {
                OFFSET -0.000000 -44.597416 0.000000
                CHANNELS 3 Zrotation Xrotation Yrotation
                JOINT LeftToeBase
                {
                    OFFSET -0.000000 -6.325025 14.596213
                    CHANNELS 3 Zrotation Xrotation Yrotation
                    End Site
                    {
                        OFFSET -0.000000 0.000000 3.892323
                    }
                }
            }
        }
    }
    JOINT RightUpLeg
    {
        OFFSET -9.730808 0.000000 0.000000
        CHANNELS 3 Zrotation Xrotation Yrotation
        JOINT RightLeg
        {
            OFFSET -0.000000 -34.800129 0.000000
            CHANNELS 3 Zrotation Xrotation Yrotation
            JOINT RightFoot
            {
                OFFSET -0.000000 -44.597416 0.000000
                CHANNELS 3 Zrotation Xrotation Yrotation
                JOINT RightToeBase
                {
                    OFFSET -0.000000 -6.325025 14.596213
                    CHANNELS 3 Zrotation Xrotation Yrotation
                    End Site
                    {
                        OFFSET -0.000000 0.000000 3.892323
                    }
                }
            }
        }
    }
}
MOTION
Frames:    13
Frame Time:    0.008333
-103.446304    84.677437    40.165798    -6.636547    -0.952746    92.691727    -1.273592    -8.511134    -0.806612    1.276413    -1.268092    -0.697668    1.354180    22.304625    7.431987    -1.567447    2.528627    7.626179    11.396925    0.290751    -11.706450    -21.058231    -1.947597    7.041428    5.431949    -9.721607    -1.569993    6.279119    -9.736833    -1.639390    -15.703828    0.977844    -4.667256    27.591045    9.223616    3.682651    -2.708187    -5.184008    -1.101573    -11.709138    -5.352911    1.400129    -0.582096    -8.485905    -7.080423    -1.492925    6.763743    2.656000    -2.242709    -9.658205    5.681959    0.000000    0.000000    0.000000    1.303531    -8.530739    0.510277    1.518501    9.439489    -3.219738    -4.264359    -13.010324    -3.818514    0.000000    0.000000    0.000000    
-103.465881    84.705032    40.177811    -6.631125    -0.940308    92.563309    -1.252831    -8.484918    -0.845018    1.327652    -1.330246    -0.736682    1.278998    22.287224    7.572095    -1.636562    2.369153    7.756851    11.346137    0.318140    -11.465989    -20.984907    -1.836202    7.114870    5.466242    -9.727548    -1.615380    5.721140    -9.742945    -1.855733    -15.699191    1.072433    -4.517030    27.421684    9.080414    3.867960    -2.732967    -4.986163    -1.000348    -11.958328    -5.157970    1.418874    -0.589269    -8.514767    -7.095098    -1.483132    6.821216    2.824598    -2.285540    -9.600762    5.646839    0.000000    0.000000    0.000000    1.311024    -8.541573    0.542364    1.509427    9.410847    -3.300955    -4.159684    -12.962789    -3.658672    0.000000    0.000000    0.000000    
-103.488922    84.724541    40.193726    -6.620965    -0.929240    92.463623    -1.230245    -8.445605    -0.887950    1.349812    -1.403316    -0.780533    1.068845    22.012589    7.728811    -1.397437    2.589036    7.936651    11.313443    0.331258    -11.296747    -20.917791    -1.638507    7.253756    5.455765    -9.843360    -1.710288    5.731389    -9.848436    -1.730764    -15.695938    1.094913    -4.397114    27.287363    9.047200    4.035835    -2.792564    -4.772406    -0.934130    -11.948030    -4.956955    1.552239    -0.584421    -8.517416    -7.141008    -1.476295    6.835797    2.951137    -2.329589    -9.562990    5.629942    0.000000    0.000000    0.000000    1.313319    -8.535563    0.570882    1.521313    9.369081    -3.286404    -4.188760    -12.957234    -3.648895    0.000000    0.000000    0.000000    
-103.509476    84.740746    40.212841    -6.600865    -0.913678    92.371986    -1.206101    -8.412696    -0.931003    1.353178    -1.454019    -0.825108    1.118248    22.007576    7.860528    -1.518738    2.455544    8.060182    11.318169    0.352091    -11.169797    -20.831814    -1.608953    7.404270    5.482601    -9.691756    -1.724860    5.358920    -9.695772    -1.851400    -15.648808    1.110694    -4.275940    27.135469    9.106422    4.179713    -2.896088    -4.615563    -0.801904    -12.264198    -4.793780    1.475567    -0.586354    -8.527121    -7.138636    -1.464736    6.879692    3.043133    -2.400661    -9.538562    5.607695    0.000000    0.000000    0.000000    1.338943    -8.561217    0.668182    1.501092    9.409865    -3.348311    -4.187528    -12.986993    -3.643348    0.000000    0.000000    0.000000    
-103.531944    84.747894    40.237679    -6.582496    -0.898989    92.300186    -1.190448    -8.402617    -0.972516    1.362394    -1.447993    -0.867839    1.044152    21.919691    7.973934    -1.415335    2.343093    8.184299    11.320848    0.317488    -11.044764    -20.734385    -1.441808    7.540240    5.437789    -9.621358    -1.729244    5.303392    -9.624379    -1.839240    -15.639679    1.091850    -4.185695    26.985292    9.160767    4.332926    -2.974141    -4.350910    -0.712893    -12.333257    -4.535984    1.546612    -0.576920    -8.561163    -7.107818    -1.468359    6.961483    3.064333    -2.467902    -9.580642    5.575999    0.000000    0.000000    0.000000    1.359221    -8.563360    0.746707    1.498807    9.410519    -3.401575    -4.222176    -13.010590    -3.643482    0.000000    0.000000    0.000000    
-103.552055    84.750412    40.257816    -6.556544    -0.872999    92.255707    -1.208545    -8.358515    -0.975972    1.380565    -1.490709    -0.869760    1.098709    21.734512    8.006527    -1.319615    2.456925    8.232156    11.378268    0.312587    -11.046376    -20.663616    -1.454874    7.636036    5.372689    -9.420532    -1.707653    5.662508    -9.415442    -1.515616    -15.598589    1.112892    -4.205154    26.798063    9.265672    4.486755    -3.000566    -4.063928    -0.616054    -12.566320    -4.245467    1.506540    -0.586910    -8.585203    -7.117442    -1.481253    7.034820    3.087410    -2.462989    -9.577383    5.618701    0.000000    0.000000    0.000000    1.354480    -8.555986    0.785192    1.503402    9.417451    -3.369353    -4.267116    -13.049103    -3.698674    0.000000    0.000000    0.000000    
-103.571213    84.750877    40.280636    -6.528414    -0.834179    92.210739    -1.168010    -8.394930    -1.011373    1.308481    -1.378879    -0.909868    1.491398    21.709772    8.106980    -1.825547    2.302217    8.293672    11.371088    0.179486    -10.992627    -20.463530    -1.280122    7.789242    5.203443    -9.294600    -1.639766    6.141801    -9.282065    -1.151985    -15.616800    1.068707    -4.193760    26.669544    9.298349    4.714082    -3.091318    -3.838826    -0.571102    -12.602506    -4.025631    1.555859    -0.607357    -8.605002    -7.105447    -1.486821    7.108636    3.087961    -2.462592    -9.566936    5.658621    0.000000    0.000000    0.000000    1.344649    -8.529787    0.851596    1.504205    9.390793    -3.430103    -4.278817    -13.071113    -3.667616    0.000000    0.000000    0.000000    
-103.590225    84.749977    40.302803    -6.493299    -0.792744    92.176407    -1.234201    -8.333694    -0.980055    1.367174    -1.445094    -0.872952    1.681127    21.600756    8.074581    -1.861003    2.346922    8.264495    11.495670    0.187537    -11.085001    -20.390289    -1.447321    7.818491    5.096288    -8.828851    -1.440767    6.278833    -8.826613    -1.127644    -15.609717    1.141170    -4.265964    26.487265    9.483047    4.839846    -3.177459    -3.629786    -0.524294    -12.411983    -3.825477    1.669385    -0.646953    -8.618692    -7.095679    -1.468319    7.183550    3.091234    -2.454125    -9.567477    5.679132    0.000000    0.000000    0.000000    1.329329    -8.507015    0.871869    1.498510    9.387927    -3.411168    -4.318764    -13.090336    -3.687730    0.000000    0.000000    0.000000    
-103.607437    84.748718    40.326683    -6.450219    -0.745698    92.160934    -1.258076    -8.314150    -0.968957    1.372983    -1.412194    -0.860560    1.792010    21.464853    8.090529    -1.856240    2.327564    8.284675    11.592891    0.111681    -11.120538    -20.331621    -1.320421    7.843266    5.026989    -8.577794    -1.209807    6.091323    -8.582020    -1.078343    -15.606171    1.105589    -4.354333    26.280899    9.679254    4.996977    -3.289748    -3.605184    -0.474051    -12.503709    -3.804039    1.694458    -0.691811    -8.616529    -7.091779    -1.446544    7.243799    3.094814    -2.477384    -9.554888    5.691075    0.000000    0.000000    0.000000    1.312296    -8.469771    0.841550    1.483327    9.374736    -3.434511    -4.358568    -13.111888    -3.648246    0.000000    0.000000    0.000000    
-103.620766    84.744026    40.354584    -6.397447    -0.703048    92.141647    -1.299012    -8.254895    -0.962854    1.439482    -1.450763    -0.850920    1.854507    21.389915    8.087848    -1.855461    2.302437    8.283331    11.646759    0.114908    -11.123789    -20.261812    -1.308042    7.787966    4.945253    -8.350224    -0.926608    6.269316    -8.361995    -0.947587    -15.627398    1.140388    -4.409896    26.048758    9.845078    5.151932    -3.337557    -3.488699    -0.412153    -12.592170    -3.692848    1.744869    -0.716475    -8.578870    -7.050354    -1.438043    7.265697    3.032965    -2.470379    -9.552083    5.732810    0.000000    0.000000    0.000000    1.304491    -8.404192    0.799507    1.466308    9.329659    -3.391969    -4.394267    -13.120518    -3.650988    0.000000    0.000000    0.000000    
-103.627930    84.739426    40.384396    -6.349416    -0.651507    92.127113    -1.338014    -8.235387    -0.960020    1.492090    -1.432695    -0.845050    1.780246    21.347998    8.098350    -1.693317    2.120973    8.306881    11.675358    0.046305    -11.173429    -20.185854    -1.183628    7.844144    4.903427    -8.238132    -0.698191    6.598323    -8.248972    -0.708618    -15.658657    1.103531    -4.440840    25.796221    10.024793    5.258677    -3.379166    -3.441609    -0.404211    -12.383698    -3.657095    1.879803    -0.756345    -8.532468    -7.007730    -1.412476    7.269735    3.013194    -2.458567    -9.545062    5.713247    0.000000    0.000000    0.000000    1.286996    -8.332535    0.755492    1.453793    9.272750    -3.327852    -4.473032    -13.114212    -3.673042    0.000000    0.000000    0.000000    
-103.629112    84.738907    40.413620    -6.286946    -0.606730    92.108345    -1.359214    -8.184994    -0.938388    1.502163    -1.463304    -0.821925    1.610736    21.092220    8.090989    -1.210813    2.357071    8.348929    11.805975    0.019934    -11.244557    -20.141676    -1.227905    7.842908    4.850937    -8.243546    -0.364085    6.129645    -8.278949    -0.956099    -15.594552    1.081619    -4.521004    25.458492    10.146736    5.396436    -3.271949    -3.127217    -0.323828    -12.467802    -3.315785    1.644018    -0.783246    -8.441698    -6.999566    -1.396245    7.229282    3.005921    -2.466601    -9.525893    5.737133    0.000000    0.000000    0.000000    1.278997    -8.236399    0.707809    1.434511    9.206078    -3.240663    -4.550966    -13.068624    -3.717984    0.000000    0.000000    0.000000    
-103.633438    84.737717    40.443401    -6.247680    -0.560752    92.094765    -1.386418    -8.128175    -0.902348    1.526854    -1.583751    -0.782707    1.746747    21.110580    8.163546    -1.188806    2.251475    8.432609    11.872437    0.045061    -11.428260    -20.007765    -1.265920    7.928254    4.632046    -8.243201    -0.148904    6.274861    -8.277619    -0.744376    -15.545595    1.165298    -4.551961    25.141888    10.258420    5.484940    -3.360802    -3.167753    -0.391389    -12.142675    -3.381033    1.900236    -0.813927    -8.362939    -7.027618    -1.377464    7.163056    3.045136    -2.505304    -9.500116    5.736558    0.000000    0.000000    0.000000    1.261084    -8.154972    0.669600    1.430944    9.109692    -3.275095    -4.544184    -13.009071    -3.647382    0.000000    0.000000    0.000000    
